# xmcd
#
# Track frame offsets:
#	150
#	925
#	27045
#	65066
#	86739
#	111006
#	136891
#	172394
#	203655
#	228360
#	252644
#	271424
#	304517
#
# Disc length: 4441 seconds
# Revision: 0
# Processed by: cddbd v1.5.2PL0 Copyright (c) Steve Scherf et al.
# Submitted via: dBpowerAMP V12.0
#
DISCID=ac11570d
DTITLE=Max Bentow - Die Puppenmacherin CD 1
DYEAR=1900
DGENRE=
TTITLE0=001
TTITLE1=002
TTITLE2=003
TTITLE3=004
TTITLE4=005
TTITLE5=006
TTITLE6=007
TTITLE7=008
TTITLE8=009
TTITLE9=010
TTITLE10=011
TTITLE11=012
TTITLE12=013
EXTD=
EXTT0=
EXTT1=
EXTT2=
EXTT3=
EXTT4=
EXTT5=
EXTT6=
EXTT7=
EXTT8=
EXTT9=
EXTT10=
EXTT11=
EXTT12=
PLAYORDER=
